<mxfile host="app.diagrams.net" modified="2021-11-01T13:24:28.192Z" agent="5.0 (Windows NT 6.1; Win64; x64) AppleWebKit/537.36 (KHTML, like Gecko) Chrome/92.0.4515.131 Safari/537.36" etag="qmBYW1QRmXTxOtF13gKU" version="15.6.3" type="github">
  <diagram id="IsuQ6Su3qVnqpkMTHOam" name="Page-1">
    <mxGraphModel dx="2249" dy="800" grid="1" gridSize="10" guides="1" tooltips="1" connect="1" arrows="1" fold="1" page="1" pageScale="1" pageWidth="827" pageHeight="1169" math="0" shadow="0">
      <root>
        <mxCell id="0" />
        <mxCell id="1" parent="0" />
        <mxCell id="tLk58wNxQ3BimzwYbh4j-24" value="" style="rounded=1;whiteSpace=wrap;html=1;" vertex="1" parent="1">
          <mxGeometry x="-320" y="220" width="210" height="225" as="geometry" />
        </mxCell>
        <mxCell id="tLk58wNxQ3BimzwYbh4j-5" style="edgeStyle=orthogonalEdgeStyle;rounded=0;orthogonalLoop=1;jettySize=auto;html=1;exitX=1;exitY=0.5;exitDx=0;exitDy=0;" edge="1" parent="1" source="tLk58wNxQ3BimzwYbh4j-1" target="tLk58wNxQ3BimzwYbh4j-2">
          <mxGeometry relative="1" as="geometry" />
        </mxCell>
        <mxCell id="tLk58wNxQ3BimzwYbh4j-1" value="工作不稳定" style="rounded=1;whiteSpace=wrap;html=1;" vertex="1" parent="1">
          <mxGeometry x="190" y="450" width="120" height="60" as="geometry" />
        </mxCell>
        <mxCell id="tLk58wNxQ3BimzwYbh4j-2" value="北京房子" style="rounded=1;whiteSpace=wrap;html=1;" vertex="1" parent="1">
          <mxGeometry x="390" y="450" width="120" height="60" as="geometry" />
        </mxCell>
        <mxCell id="tLk58wNxQ3BimzwYbh4j-10" style="edgeStyle=orthogonalEdgeStyle;rounded=0;orthogonalLoop=1;jettySize=auto;html=1;exitX=0;exitY=0.5;exitDx=0;exitDy=0;entryX=1;entryY=0.5;entryDx=0;entryDy=0;" edge="1" parent="1" source="tLk58wNxQ3BimzwYbh4j-3" target="tLk58wNxQ3BimzwYbh4j-2">
          <mxGeometry relative="1" as="geometry" />
        </mxCell>
        <mxCell id="tLk58wNxQ3BimzwYbh4j-3" value="首付 -&amp;nbsp; 借 - 怕还不起" style="rounded=1;whiteSpace=wrap;html=1;" vertex="1" parent="1">
          <mxGeometry x="540" y="440" width="130" height="30" as="geometry" />
        </mxCell>
        <mxCell id="tLk58wNxQ3BimzwYbh4j-11" style="edgeStyle=orthogonalEdgeStyle;rounded=0;orthogonalLoop=1;jettySize=auto;html=1;exitX=0;exitY=0.5;exitDx=0;exitDy=0;entryX=1;entryY=0.5;entryDx=0;entryDy=0;" edge="1" parent="1" source="tLk58wNxQ3BimzwYbh4j-4" target="tLk58wNxQ3BimzwYbh4j-2">
          <mxGeometry relative="1" as="geometry" />
        </mxCell>
        <mxCell id="tLk58wNxQ3BimzwYbh4j-4" value="为什么买房子：阶级、自我实现" style="rounded=1;whiteSpace=wrap;html=1;" vertex="1" parent="1">
          <mxGeometry x="540" y="490" width="220" height="30" as="geometry" />
        </mxCell>
        <mxCell id="tLk58wNxQ3BimzwYbh4j-6" value="风险" style="text;html=1;align=center;verticalAlign=middle;resizable=0;points=[];autosize=1;strokeColor=none;fillColor=none;" vertex="1" parent="1">
          <mxGeometry x="330" y="470" width="40" height="20" as="geometry" />
        </mxCell>
        <mxCell id="tLk58wNxQ3BimzwYbh4j-12" value="赚钱能力远远大于还贷" style="text;html=1;strokeColor=none;fillColor=none;align=center;verticalAlign=middle;whiteSpace=wrap;rounded=0;" vertex="1" parent="1">
          <mxGeometry x="190" y="400" width="310" height="50" as="geometry" />
        </mxCell>
        <mxCell id="tLk58wNxQ3BimzwYbh4j-14" style="edgeStyle=orthogonalEdgeStyle;rounded=0;orthogonalLoop=1;jettySize=auto;html=1;exitX=1;exitY=0.5;exitDx=0;exitDy=0;" edge="1" parent="1" source="tLk58wNxQ3BimzwYbh4j-13" target="tLk58wNxQ3BimzwYbh4j-12">
          <mxGeometry relative="1" as="geometry" />
        </mxCell>
        <mxCell id="tLk58wNxQ3BimzwYbh4j-13" value="如何做" style="ellipse;whiteSpace=wrap;html=1;" vertex="1" parent="1">
          <mxGeometry x="140" y="350" width="80" height="40" as="geometry" />
        </mxCell>
        <mxCell id="tLk58wNxQ3BimzwYbh4j-17" style="edgeStyle=orthogonalEdgeStyle;rounded=0;orthogonalLoop=1;jettySize=auto;html=1;exitX=1;exitY=0.5;exitDx=0;exitDy=0;entryX=0;entryY=0.5;entryDx=0;entryDy=0;" edge="1" parent="1" source="tLk58wNxQ3BimzwYbh4j-15" target="tLk58wNxQ3BimzwYbh4j-13">
          <mxGeometry relative="1" as="geometry" />
        </mxCell>
        <mxCell id="tLk58wNxQ3BimzwYbh4j-22" style="edgeStyle=orthogonalEdgeStyle;rounded=0;orthogonalLoop=1;jettySize=auto;html=1;exitX=0;exitY=0.5;exitDx=0;exitDy=0;entryX=1;entryY=0.5;entryDx=0;entryDy=0;" edge="1" parent="1" source="tLk58wNxQ3BimzwYbh4j-15" target="tLk58wNxQ3BimzwYbh4j-21">
          <mxGeometry relative="1" as="geometry" />
        </mxCell>
        <mxCell id="tLk58wNxQ3BimzwYbh4j-15" value="专业&amp;nbsp; -&amp;nbsp; 专家" style="rounded=1;whiteSpace=wrap;html=1;" vertex="1" parent="1">
          <mxGeometry x="-60" y="290" width="120" height="60" as="geometry" />
        </mxCell>
        <mxCell id="tLk58wNxQ3BimzwYbh4j-18" style="edgeStyle=orthogonalEdgeStyle;rounded=0;orthogonalLoop=1;jettySize=auto;html=1;exitX=1;exitY=0.5;exitDx=0;exitDy=0;" edge="1" parent="1" source="tLk58wNxQ3BimzwYbh4j-16">
          <mxGeometry relative="1" as="geometry">
            <mxPoint x="140" y="370" as="targetPoint" />
          </mxGeometry>
        </mxCell>
        <mxCell id="tLk58wNxQ3BimzwYbh4j-23" style="edgeStyle=orthogonalEdgeStyle;rounded=0;orthogonalLoop=1;jettySize=auto;html=1;exitX=0;exitY=0.5;exitDx=0;exitDy=0;" edge="1" parent="1" source="tLk58wNxQ3BimzwYbh4j-16" target="tLk58wNxQ3BimzwYbh4j-20">
          <mxGeometry relative="1" as="geometry" />
        </mxCell>
        <mxCell id="tLk58wNxQ3BimzwYbh4j-16" value="副业" style="rounded=1;whiteSpace=wrap;html=1;" vertex="1" parent="1">
          <mxGeometry x="-60" y="360" width="120" height="60" as="geometry" />
        </mxCell>
        <mxCell id="tLk58wNxQ3BimzwYbh4j-19" value="时间 ！ + 抓机遇" style="text;html=1;strokeColor=none;fillColor=none;align=center;verticalAlign=middle;whiteSpace=wrap;rounded=0;" vertex="1" parent="1">
          <mxGeometry x="70" y="320" width="130" height="40" as="geometry" />
        </mxCell>
        <mxCell id="tLk58wNxQ3BimzwYbh4j-20" value="擅长什么，并可以发展为副业？" style="rounded=1;whiteSpace=wrap;html=1;" vertex="1" parent="1">
          <mxGeometry x="-230" y="360" width="90" height="60" as="geometry" />
        </mxCell>
        <mxCell id="tLk58wNxQ3BimzwYbh4j-21" value="专业方向？" style="rounded=1;whiteSpace=wrap;html=1;" vertex="1" parent="1">
          <mxGeometry x="-230" y="290" width="90" height="60" as="geometry" />
        </mxCell>
        <mxCell id="tLk58wNxQ3BimzwYbh4j-25" value="必须保证身体健康否则都是空谈" style="text;html=1;strokeColor=none;fillColor=none;align=center;verticalAlign=middle;whiteSpace=wrap;rounded=0;" vertex="1" parent="1">
          <mxGeometry x="-390" y="230" width="190" height="40" as="geometry" />
        </mxCell>
      </root>
    </mxGraphModel>
  </diagram>
</mxfile>
